<?xml version="1.0" encoding="UTF-8"?>
<svg version="1.1" xmlns="http://www.w3.org/2000/svg" width="540" height="314">
<path d="M0 0 C6.51496821 6.14921561 11.4553154 13.41967479 16.4765625 20.7890625 C21.43289412 18.87995699 26.15876879 16.55383992 30.9296875 14.2265625 C38.49424565 11.16075039 45.7370099 10.42619835 53.8515625 10.4765625 C54.77549805 10.48075195 55.69943359 10.48494141 56.65136719 10.48925781 C63.31495575 10.59965212 69.24511879 11.29648501 75.4765625 13.7890625 C76.22421875 14.0675 76.971875 14.3459375 77.7421875 14.6328125 C92.99925263 20.82099276 106.02370189 32.01920072 113.4765625 46.7890625 C116.67137571 54.51818091 119.6651949 62.15069177 119.5390625 70.6015625 C119.53003906 71.39175781 119.52101563 72.18195313 119.51171875 72.99609375 C119.49431641 73.88361328 119.49431641 73.88361328 119.4765625 74.7890625 C120.1365625 74.4590625 120.7965625 74.1290625 121.4765625 73.7890625 C132.48090574 72.74888664 143.37019509 73.04100476 153.4765625 77.7890625 C154.38277344 78.18996094 155.28898437 78.59085937 156.22265625 79.00390625 C171.96177169 86.70602657 182.90572206 100.81774223 189.4765625 116.7890625 C196.55057922 137.76434464 196.34541375 159.88431543 187.26953125 180.21875 C178.906419 196.87209334 165.96035499 210.15820767 148.0390625 216.2265625 C131.84742543 220.58061617 116.62776805 218.8935349 101.828125 210.92578125 C92.04803257 204.69068736 83.3282641 195.83842178 77.4765625 185.7890625 C76.73828125 182.43359375 76.73828125 182.43359375 76.4765625 179.7890625 C80.86794728 178.47854453 80.86794728 178.47854453 83.58203125 179.86328125 C84.61263672 180.66185547 84.61263672 180.66185547 85.6640625 181.4765625 C97.49911737 189.98671901 111.32277901 191.49170992 125.49609375 189.328125 C137.97425871 185.90116532 148.92774156 178.34343284 155.37890625 167.015625 C161.33672633 154.93036719 162.8249119 141.3707971 158.9140625 128.3515625 C153.8757685 115.65927482 146.30953345 106.90635347 133.9765625 100.9140625 C122.28431265 96.02995813 111.24495914 96.3887566 98.84765625 97.66796875 C97.67396484 97.72791016 97.67396484 97.72791016 96.4765625 97.7890625 C95.4765625 96.7890625 95.4765625 96.7890625 95.41064453 94.90649414 C95.43497559 94.09559326 95.45930664 93.28469238 95.484375 92.44921875 C95.50113281 91.55009766 95.51789063 90.65097656 95.53515625 89.72460938 C95.57861956 87.84418203 95.63037788 85.96392363 95.69140625 84.08398438 C95.86318204 73.05129399 92.55181528 64.86945368 86.4765625 55.7890625 C85.8784375 54.8815625 85.2803125 53.9740625 84.6640625 53.0390625 C76.01200443 44.13980277 64.63537618 39.72073175 52.4140625 39.4765625 C40.39757483 39.45006204 29.84616524 43.46487582 21.28515625 51.96484375 C17.60603914 55.99628884 14.33614846 60.14223532 11.4765625 64.7890625 C9.12890625 64.65625 9.12890625 64.65625 6.4765625 63.7890625 C5.10546875 61.234375 5.10546875 61.234375 4.0390625 57.9140625 C-3.6296403 36.16628614 -18.51484373 21.22669636 -39.01171875 11.05859375 C-60.23852956 1.49590367 -83.99780383 0.09195854 -105.9375 8.25390625 C-128.94497579 18.1035119 -145.26321947 33.45809604 -154.73486328 56.74902344 C-158.29851324 65.96817484 -160.05494732 75.13634338 -161.12890625 84.90234375 C-161.5234375 87.7890625 -161.5234375 87.7890625 -162.5234375 88.7890625 C-164.15214208 88.69307421 -165.77707831 88.53346014 -167.3984375 88.3515625 C-189.41209288 86.4191657 -209.59165247 87.82247035 -227.8359375 101.6015625 C-237.72066142 109.98140057 -244.05728783 120.24968883 -245.5234375 133.2890625 C-246.03964328 146.3819181 -240.97833085 157.5231088 -232.26953125 167.13671875 C-218.03095562 180.6108071 -198.90443284 185.30652999 -179.7890625 185.00390625 C-161.84124743 184.34777586 -145.49221377 177.60419982 -133.2109375 164.4140625 C-129.87039507 160.48481792 -127.28967008 156.29198145 -124.84765625 151.7578125 C-123.5234375 149.7890625 -123.5234375 149.7890625 -120.5234375 148.7890625 C-119.8634375 149.1190625 -119.2034375 149.4490625 -118.5234375 149.7890625 C-117.86960782 151.87240162 -117.30138619 153.98282105 -116.7734375 156.1015625 C-112.03796095 173.53399382 -102.36725841 185.81172082 -86.91796875 194.890625 C-66.3732526 206.3805353 -41.52578491 209.85457384 -18.54296875 203.76171875 C1.3728654 197.34639831 18.15475144 187.67992425 28.4765625 168.7890625 C32.98213522 158.62532868 35.65866246 147.19326464 32.79296875 136.15625 C31.8427073 133.8929717 30.76794457 131.87545165 29.4765625 129.7890625 C29.0640625 129.09167969 28.6515625 128.39429688 28.2265625 127.67578125 C22.76524346 119.43725735 14.48946303 115.47811199 5.06640625 113.2578125 C-3.87360025 111.63971178 -12.3567361 113.33194463 -19.8984375 118.4765625 C-25.29068036 122.9101844 -27.45622139 127.9653656 -28.4609375 134.7890625 C-28.7608281 139.66978197 -28.09907187 143.59311995 -25.5234375 147.7890625 C-18.48386097 154.9886294 -11.99332354 156.11299088 -2.31640625 156.48046875 C0.4765625 156.7890625 0.4765625 156.7890625 2.4765625 158.7890625 C2.27971931 161.38946468 1.84077406 162.46749034 -0.125 164.203125 C-9.69606651 169.93098334 -19.56681636 171.57069777 -30.59375 169.1015625 C-40.30869298 165.8542278 -48.8798104 159.65724137 -53.74609375 150.484375 C-58.84128152 139.34435873 -58.84605767 128.49371906 -54.84765625 116.86328125 C-48.86669423 102.97827502 -37.99516385 95.49317421 -24.5234375 89.7890625 C-7.88174044 83.67269851 10.70911617 86.23167277 26.609375 93.359375 C42.76322792 101.41429349 53.66999019 113.03768687 60.6328125 129.52734375 C66.61632907 147.78260958 60.9344131 167.95081122 53.13671875 184.66015625 C49.47695353 191.80734318 44.81055131 197.81221511 39.4765625 203.7890625 C38.72632813 204.6346875 37.97609375 205.4803125 37.203125 206.3515625 C18.03773617 226.72672671 -9.42606979 236.45974761 -36.8515625 237.97265625 C-66.36589067 238.59056706 -93.40153387 228.17519809 -115.1484375 208.40234375 C-119.50431827 204.18258425 -123.18564 199.8495942 -126.5234375 194.7890625 C-130.26361504 196.16135786 -133.41448871 197.90852927 -136.7734375 200.0390625 C-160.18154576 213.82543301 -188.82375434 216.34499457 -214.97265625 210.04296875 C-231.86455938 205.5637595 -246.14169506 197.12751213 -258.5234375 184.7890625 C-259.21953125 184.11617187 -259.915625 183.44328125 -260.6328125 182.75 C-273.37803574 169.56017595 -279.19598198 151.94512126 -278.99658203 133.85229492 C-278.22582649 113.28145442 -268.34379738 96.90352368 -253.84765625 82.875 C-242.28516975 72.49791128 -227.52694764 65.51055979 -212.5234375 61.7890625 C-211.65976563 61.56476563 -210.79609375 61.34046875 -209.90625 61.109375 C-201.22363195 59.18283665 -192.3628713 59.61402421 -183.5234375 59.7890625 C-183.40097656 58.61472656 -183.27851563 57.44039063 -183.15234375 56.23046875 C-180.01383186 31.38982942 -162.45126776 8.03691956 -143.5234375 -7.3359375 C-99.11610849 -40.98256144 -40.84392637 -35.785855 0 0 Z " fill="#1ED5FE" transform="translate(320.5234375,51.2109375)"/>
<path d="M0 0 C3.63 0 7.26 0 11 0 C7 3 7 3 4 3 C4 2.34 4 1.68 4 1 C2.68 0.67 1.36 0.34 0 0 Z " fill="#1AE2FE" transform="translate(239,51)"/>
</svg>
