<?xml version="1.0" encoding="UTF-8"?>
<!DOCTYPE svg PUBLIC "-//W3C//DTD SVG 1.1//EN" "http://www.w3.org/Graphics/SVG/1.1/DTD/svg11.dtd">
<svg xmlns="http://www.w3.org/2000/svg" version="1.1" width="294px" height="226px" style="shape-rendering:geometricPrecision; text-rendering:geometricPrecision; image-rendering:optimizeQuality; fill-rule:evenodd; clip-rule:evenodd" xmlns:xlink="http://www.w3.org/1999/xlink">
<g><path style="opacity:1" fill="#f9faf9" d="M 125.5,9.5 C 144.643,8.57247 159.643,15.9058 170.5,31.5C 185.872,23.3014 199.038,25.9681 210,39.5C 212.406,43.8855 213.906,48.5522 214.5,53.5C 230.343,52.8296 240.51,60.1629 245,75.5C 247.949,89.3209 244.115,100.821 233.5,110C 220.815,117.153 209.315,115.653 199,105.5C 197.007,103.182 195.841,100.516 195.5,97.5C 199.105,98.9629 202.771,100.463 206.5,102C 221.202,103.958 229.535,97.6247 231.5,83C 230.969,73.1358 225.969,66.8025 216.5,64C 212.133,63.6362 207.966,63.4696 204,63.5C 204.557,46.3874 196.39,38.5541 179.5,40C 174.091,41.9104 170.091,45.4104 167.5,50.5C 158.742,30.2849 143.408,21.7849 121.5,25C 104.673,30.7974 95.6734,42.6307 94.5,60.5C 80.8498,57.0292 69.6831,60.6958 61,71.5C 56.6628,83.8094 60.4961,92.6428 72.5,98C 85.3605,102.74 96.8605,100.574 107,91.5C 108.559,89.7834 109.392,87.7834 109.5,85.5C 110.833,85.5 112.167,85.5 113.5,85.5C 115.744,97.2496 122.744,104.75 134.5,108C 148.744,111.481 161.244,108.314 172,98.5C 179.812,89.0176 179.312,80.1843 170.5,72C 160.512,67.7132 153.845,70.5465 150.5,80.5C 153.004,86.7569 157.671,89.4236 164.5,88.5C 163.472,91.7144 161.138,93.5477 157.5,94C 141.832,93.651 135.999,85.8177 140,70.5C 147.363,60.2668 157.196,56.7668 169.5,60C 185.65,65.1315 192.15,75.9648 189,92.5C 181.551,112.271 167.218,122.271 146,122.5C 130.66,122.246 118.16,116.246 108.5,104.5C 90.5066,115.539 72.8399,115.039 55.5,103C 40.5253,87.0222 40.8586,71.3556 56.5,56C 64.8948,50.146 74.2281,46.9794 84.5,46.5C 90.9878,26.0034 104.654,13.6701 125.5,9.5 Z"/></g>
<g><path style="opacity:1" fill="#f9faf9" d="M 164.5,129.5 C 167.187,129.336 169.854,129.503 172.5,130C 176.462,131.211 177.129,133.211 174.5,136C 166.737,136.974 163.404,141.474 164.5,149.5C 167.518,149.335 170.518,149.502 173.5,150C 176.167,151.667 176.167,153.333 173.5,155C 170.518,155.498 167.518,155.665 164.5,155.5C 164.667,168.837 164.5,182.171 164,195.5C 160.22,210.631 150.72,216.797 135.5,214C 132.833,212 132.833,210 135.5,208C 139.5,207.667 143.5,207.333 147.5,207C 150.377,203.372 151.877,199.206 152,194.5C 152.667,181.833 152.667,169.167 152,156.5C 151.19,154.694 150.024,153.194 148.5,152C 149.098,150.699 150.098,149.865 151.5,149.5C 151.37,139.722 155.704,133.056 164.5,129.5 Z"/></g>
<g><path style="opacity:1" fill="#f9faf9" d="M 184.5,129.5 C 186.582,129.472 188.416,130.139 190,131.5C 190.5,150.497 190.667,169.497 190.5,188.5C 192.696,188.41 194.863,188.077 197,187.5C 202.158,188.642 202.658,190.809 198.5,194C 192.69,196.122 187.023,195.789 181.5,193C 179.683,191.2 178.516,189.034 178,186.5C 177.167,168.158 177.334,149.824 178.5,131.5C 180.657,130.95 182.657,130.283 184.5,129.5 Z"/></g>
<g><path style="opacity:1" fill="#f9faf9" d="M 10.5,135.5 C 19.5062,135.334 28.5062,135.5 37.5,136C 49.1192,138.615 53.9525,145.782 52,157.5C 49.4139,163.592 44.9139,167.259 38.5,168.5C 41.5123,177.823 47.0123,185.49 55,191.5C 55.6172,192.449 55.4506,193.282 54.5,194C 49.2661,194.977 44.2661,194.31 39.5,192C 33.8563,185.852 29.1896,179.019 25.5,171.5C 24.3112,170.571 22.9778,170.238 21.5,170.5C 21.6663,177.841 21.4997,185.174 21,192.5C 17.4054,194.456 13.572,194.956 9.5,194C 8.31277,192.981 7.31277,191.814 6.5,190.5C 7.31999,172.877 7.81999,155.21 8,137.5C 8.9947,136.934 9.82803,136.267 10.5,135.5 Z M 21.5,142.5 C 36.379,141.523 40.7124,147.69 34.5,161C 30.3795,162.899 26.0462,163.732 21.5,163.5C 21.5,156.5 21.5,149.5 21.5,142.5 Z"/></g>
<g><path style="opacity:1" fill="#f9faf9" d="M 134.5,135.5 C 144.055,134.195 146.722,137.695 142.5,146C 138.372,148.11 134.539,147.61 131,144.5C 129.665,140.392 130.832,137.392 134.5,135.5 Z"/></g>
<g><path style="opacity:1" fill="#f9faf9" d="M 108.5,148.5 C 113.777,147.931 118.777,148.765 123.5,151C 127.725,154.15 127.391,156.65 122.5,158.5C 117.937,155.959 113.437,155.959 109,158.5C 108.333,160.5 108.333,162.5 109,164.5C 113.422,167.964 118.256,170.797 123.5,173C 129.082,177.739 129.915,183.239 126,189.5C 123.374,192.231 120.207,194.064 116.5,195C 110.083,195.87 103.749,195.536 97.5,194C 94.8333,191.667 94.8333,189.333 97.5,187C 101.362,187.001 105.195,187.501 109,188.5C 115.129,188.881 117.296,186.214 115.5,180.5C 110.825,177.16 105.825,174.327 100.5,172C 95.0637,167.215 94.2304,161.715 98,155.5C 100.998,152.262 104.498,149.929 108.5,148.5 Z"/></g>
<g><path style="opacity:1" fill="#f9faf9" d="M 70.5,149.5 C 75.9302,149.161 81.2636,149.661 86.5,151C 94.6645,156.48 95.6645,163.147 89.5,171C 82.6442,175.842 74.9775,178.175 66.5,178C 67.1367,184.797 70.8033,188.63 77.5,189.5C 81.0939,188.181 84.7605,187.681 88.5,188C 90.2233,191.408 89.2233,193.741 85.5,195C 62.499,198.991 51.999,189.491 54,166.5C 56.3493,157.652 61.8493,151.986 70.5,149.5 Z M 73.5,155.5 C 79.501,155.457 81.6677,158.457 80,164.5C 77.1187,169.714 72.7854,173.047 67,174.5C 65.7489,166.825 67.9155,160.491 73.5,155.5 Z"/></g>
<g><path style="opacity:1" fill="#f9faf9" d="M 216.5,149.5 C 221.93,149.161 227.264,149.661 232.5,151C 240.665,156.48 241.665,163.147 235.5,171C 228.644,175.842 220.977,178.175 212.5,178C 213.137,184.797 216.803,188.63 223.5,189.5C 227.094,188.181 230.761,187.681 234.5,188C 236.486,191.085 235.486,193.418 231.5,195C 208.52,199.013 198.02,189.513 200,166.5C 202.349,157.652 207.849,151.986 216.5,149.5 Z M 219.5,155.5 C 225.501,155.457 227.668,158.457 226,164.5C 223.119,169.714 218.785,173.047 213,174.5C 211.992,166.992 214.158,160.659 219.5,155.5 Z"/></g>
<g><path style="opacity:1" fill="#f9faf9" d="M 135.5,150.5 C 138.685,150.02 141.519,150.686 144,152.5C 144.667,165.833 144.667,179.167 144,192.5C 135.014,196.935 130.847,194.269 131.5,184.5C 132.444,173.835 132.61,163.169 132,152.5C 133.302,151.915 134.469,151.249 135.5,150.5 Z"/></g>
<g><path style="opacity:1" fill="#f9faf9" d="M 242.5,150.5 C 246.182,150.335 249.848,150.501 253.5,151C 256.788,155.077 259.955,159.244 263,163.5C 266.167,159.667 269.333,155.833 272.5,152C 275.959,150.294 279.459,150.128 283,151.5C 283.667,152.5 283.667,153.5 283,154.5C 277.789,160.042 272.956,165.875 268.5,172C 273.867,178.567 278.867,185.4 283.5,192.5C 283.291,193.086 282.957,193.586 282.5,194C 278.833,194.667 275.167,194.667 271.5,194C 267.95,190.117 264.783,185.951 262,181.5C 258.478,186.019 254.645,190.185 250.5,194C 247.24,194.784 244.073,194.617 241,193.5C 240.251,192.365 240.417,191.365 241.5,190.5C 246.549,184.786 251.215,178.786 255.5,172.5C 250.833,165.833 246.167,159.167 241.5,152.5C 241.863,151.817 242.196,151.15 242.5,150.5 Z"/></g>
</svg>
